<svg xmlns="http://www.w3.org/2000/svg" version="1.1" xmlnsXlink="http://www.w3.org/1999/xlink" xmlnsSvgjs="http://svgjs.dev/svgjs" width="1000" height="366" viewBox="0 0 1000 366"><g transform="matrix(1,0,0,1,-0.6053100135927139,-0.2946542667924916)"><svg viewBox="0 0 396 145" data-background-color="#ffffff" preserveAspectRatio="xMidYMid meet" height="366" width="1000" xmlns="http://www.w3.org/2000/svg" xmlns:xlink="http://www.w3.org/1999/xlink"><g id="tight-bounds" transform="matrix(1,0,0,1,0.2399599999999964,0.11673461389320039)"><svg viewBox="0 0 395.52 144.7663200390434" height="144.7663200390434" width="395.52"><rect width="395.52033723461733" height="144.76653077221354" fill="url(#0be1f8d5-4f42-4d23-8c79-f4da9e2c37d6)" mask="url(&quot;#2e757e32-26bc-474f-ab88-e509165a4dce&quot;)" data-fill-palette-color="tertiary"></rect><g><svg viewBox="0 0 395.52 144.7663200390434" height="144.7663200390434" width="395.52"><g><svg viewBox="0 0 395.52 144.7663200390434" height="144.7663200390434" width="395.52"><g id="textblocktransform"><svg viewBox="0 0 395.52 144.7663200390434" height="144.7663200390434" width="395.52" id="textblock"><g><svg viewBox="0 0 395.52 144.7663200390434" height="144.7663200390434" width="395.52"><path d="M394.594 31.05C392.735 16.023 387.435 11.845 387.435 11.845 371.165-3.632 350.86-0.296 332.619 1.928 300.414 2.018 268.339 5.324 236.208 7.097 168.767 7.368 100.749 2.92 33.643 13.889 27.339 17.255-6.54 14.55 1.121 32.973 3.129 40.637 10.456 49.142 10.232 56.174 11.236 57.406 12.631 54.581 13.226 56.355 15.309 61.133 18.711 58.879 21.501 61.704 17.614 69.247 20.403 75.529 23.062 82.11 18.377 83.823 12.371 83.012 9.675 88.692 9.396 92.809 7.89 92.028 6.235 91.848 5.026 91.727 2.59 92.178 2.999 93.47 4.394 97.888-1.594 100.443 2.162 104.771-0.422 109.459 3.948 113.516 3.353 118.595 3.278 119.617 3.687 120.488 4.338 120.729 7.22 122.021 3.018 124.546 3.464 127.281 33.029 145.974 65.104 133.051 95.394 141.646 103.259 135.635 97.346 143.78 100.489 142.518 102.943 141.045 104.728 147.146 107.499 143.69 107.927 142.698 107.276 140.354 108.8 140.805 109.6 141.045 110.307 140.985 110.418 139.602 110.586 137.529 109.117 138.821 108.726 137.739 112.947 132.269 111.906 145.283 115.866 144.742 115.68 143.149 114.528 140.865 116.889 141.165 119.232 138.881 119.306 136.988 121.389 142.127 121.463 143.239 121.835 144.02 122.43 144.561 128.938 138.971 135.409 146.545 142.233 144.02 146.417 141.255 150.433 145.523 154.672 144.471 156.16 143.63 157.666 142.127 159.098 144.651 176.632 145.192 195.319 142.938 211.943 144.742 256.364 141.376 303.836 146.124 350.674 141.676 361.719 139.963 373.192 137.529 383.958 135.575 383.958 135.575 392.679 130.226 392.679 106.183S394.538 85.146 394.817 66.002C395.096 46.858 396.398 46.076 394.538 31.05Z" opacity="1" fill="url(#0be1f8d5-4f42-4d23-8c79-f4da9e2c37d6)" data-fill-palette-color="tertiary"></path><g transform="matrix(1,0,0,1,55.76832,26.230666666666668)"><svg width="283.98335999999995" viewBox="0.12 -30.96 136.59 44.400000000000006" height="92.30498670571006" data-palette-color="#111111"><path d="M9.04 8.2L9.04 8.2Q12.04 8.2 14.28 6.42 16.52 4.64 17.84 1.72 19.16-1.2 20.12-4.8 21.08-8.4 21.74-12.26 22.4-16.12 23.04-19.52L23.04-19.52Q24.48-27.4 26.92-29.56L26.92-29.56Q21.28-28.68 18.32-24.04L18.32-24.04Q16.48-21.2 16.48-18.48L16.48-18.48Q16.48-15.16 18.52-14.88L18.52-14.88Q18.68-14.84 18.84-14.84L18.84-14.84Q18.84-14.56 18.6-14.32L18.6-14.32Q18.16-13.88 17.4-13.88L17.4-13.88Q15.04-13.88 14.4-16.4L14.4-16.4Q14.16-17.24 14.16-18.16L14.16-18.16Q14.16-20.36 15.48-22.88L15.48-22.88Q17.88-27.48 22.96-29.4L22.96-29.4Q25.84-30.48 29.24-30.48L29.24-30.48Q29.68-30.48 29.92-30.28 30.16-30.08 30.2-29.68L30.2-29.68Q28-29.68 26.88-24.8L26.88-24.8Q26.4-22.52 25.96-19.62 25.52-16.72 25-13.5 24.48-10.28 23.8-7.06 23.12-3.84 21.9-0.94 20.68 1.96 19.06 4.22 17.44 6.48 14.88 7.8 12.32 9.12 9.6 9.12 6.88 9.12 5.16 8.44 3.44 7.76 2.4 6.6L2.4 6.6Q0.12 4 0.12 0.6L0.12 0.6Q0.12-3.12 1.56-5.64L1.56-5.64Q4.48-10.8 9.2-10.8L9.2-10.8Q10.04-10.8 10.54-10.36 11.04-9.92 11.12-9.52L11.12-9.52 11.2-9.08Q10.48-9.16 10.2-9.16L10.2-9.16Q5.88-9.16 3.52-4.8L3.52-4.8Q2.04-2.12 2.04 0.56L2.04 0.56Q2.04 2.2 2.56 3.84L2.56 3.84Q4.04 8.2 9.04 8.2ZM32.64 0L32.64 0Q29.36 0 29.36-5.16L29.36-5.16Q29.36-8.24 30.88-11.92L30.88-11.92Q33-17.08 36.44-18.96L36.44-18.96Q37.92-19.76 39.2-19.76 40.48-19.76 41.22-19.2 41.96-18.64 42.16-18.08L42.16-18.08 42.4-17.56Q42.28-16.88 41.72-16.88L41.72-16.88Q41.08-16.88 40.98-17.18 40.88-17.48 40.76-17.7 40.64-17.92 40.2-18.3 39.76-18.68 39.2-18.68L39.2-18.68Q36.6-18.68 34.48-14L34.48-14Q32.08-8.6 32.08-3.84L32.08-3.84Q32.08-1.44 33.04-1.44L33.04-1.44Q33.8-1.44 35.18-3.14 36.56-4.84 38.08-7.4L38.08-7.4Q40.72-11.8 42.36-15.04L42.36-15.04Q43.72-17.92 45.16-17.92L45.16-17.92Q45.92-17.92 45.92-17L45.92-17Q45.56-16.24 45-14.84 44.44-13.44 43.52-9.28 42.6-5.12 42.6-1 42.6 3.12 43.84 3.12L43.84 3.12Q44.32 3.12 44.72 2.7 45.12 2.28 45.44 1.44L45.44 1.44Q45.56 1 46 1L46 1Q46.16 1 46.24 1.12 46.32 1.24 46.24 1.52 46.16 1.8 45.96 2.3 45.76 2.8 45.1 3.64 44.44 4.48 43.72 4.48L43.72 4.48Q42.04 4.48 41.14 2.28 40.24 0.08 40.24-2.92 40.24-5.92 40.68-8.68L40.68-8.68 40.28-8.68Q35.2 0 32.64 0ZM49.48 12.52L49.48 12.52Q53.08 12.52 55.12 9.12L55.12 9.12Q56.88 6.12 57.84 1.64L57.84 1.64Q50.6 1.8 46.72 7.16L46.72 7.16Q46.48 7.52 45.96 7.28L45.96 7.28Q45.68 7.12 45.8 6.88L45.8 6.88Q47.52 4.28 50.6 2.46 53.68 0.64 58.08 0.48L58.08 0.48Q58.52-1.52 58.92-4.2 59.32-6.88 59.84-9.4L59.84-9.4 59.48-9.4Q54.28-0.16 51.56-0.16L51.56-0.16Q48.52-0.16 48.52-4.84 48.52-9.52 50.52-14.26 52.52-19 54.16-19.36L54.16-19.36 54.4-19.4Q55.08-19.4 55.08-18.52L55.08-18.52Q54.64-17.44 53.96-15.7 53.28-13.96 52.16-9.98 51.04-6 51.04-3.78 51.04-1.56 52-1.56L52-1.56Q53.12-1.56 55.6-5.44L55.6-5.44Q59.23-11.12 61.92-16.96L61.92-16.96Q63.08-19.4 64.4-19.4L64.4-19.4Q65.23-19.4 65.23-18.48L65.23-18.48Q64.48-17.08 63.4-13.24 62.32-9.4 61.64-5.5 60.96-1.6 60.48 0.6L60.48 0.6Q63.52 1.12 64 3.24L64 3.24Q64.08 3.6 64.08 4.22 64.08 4.84 63.6 5.3 63.12 5.76 62.76 5.76L62.76 5.76Q62.84 5.48 62.8 4.78 62.76 4.08 62.54 3.6 62.32 3.12 61.72 2.6 61.12 2.08 60.16 1.84L60.16 1.84Q57.08 13.44 49.48 13.44L49.48 13.44Q46.2 13.44 45.12 11.12L45.12 11.12Q45.08 11 45.08 10.92L45.08 10.92Q45.08 10.68 45.5 10.62 45.92 10.56 46.12 10.88L46.12 10.88Q46.84 12.52 49.48 12.52ZM79.43-19.12L79.43-19.12Q77.95-19.12 77.95-21.2 77.95-23.28 80.11-25.84L80.11-25.84Q83.71-30.16 90.11-30.84L90.11-30.84 92.31-30.96Q99.59-30.96 102.87-25.16L102.87-25.16Q104.83-21.6 104.83-16.96L104.83-16.96Q104.83-15.04 104.51-12.92L104.51-12.92Q103.35-5.8 98.99-0.84L98.99-0.84Q94.19 4.64 87.81 4.64 81.43 4.64 79.71 1.08L79.71 1.08Q79.19-0.04 79.19-1.3 79.19-2.56 79.87-3.96L79.87-3.96Q81.19-6.52 83.47-6.52L83.47-6.52Q83.67-6.52 83.73-6.3 83.79-6.08 83.69-5.84 83.59-5.6 83.39-5.6L83.39-5.6Q82.03-5.6 81.03-3.84L81.03-3.84Q80.39-2.6 80.39-1.56 80.39-0.52 80.79 0.36L80.79 0.36Q82.07 3.08 86.91 3.08L86.91 3.08Q92.39 3.08 96.83-2.52L96.83-2.52Q100.83-7.56 101.99-14.36L101.99-14.36Q102.39-16.56 102.39-18.52L102.39-18.52Q102.39-22.88 100.43-25.88L100.43-25.88Q97.83-29.92 92.27-29.92L92.27-29.92Q85.31-29.92 81.83-25.24L81.83-25.24Q80.07-22.84 80.07-20.76L80.07-20.76Q80.07-19.92 80.43-19.92L80.43-19.92Q80.19-19.12 79.43-19.12ZM85.19-3.96L85.19-3.96Q85.19-10.04 86.27-15.78 87.35-21.52 88.93-24.86 90.51-28.2 91.99-28.2L91.99-28.2Q92.63-28.2 92.63-27.56L92.63-27.56Q90.83-23.84 89.47-17.64L89.47-17.64Q86.95-6.32 86.95-1.28L86.95-1.28Q86.95-0.76 86.39-0.76L86.39-0.76Q85.19-0.76 85.19-3.96ZM118.11-19.4L118.11-19.4Q121.15-19.4 121.15-15.84L121.15-15.84Q121.15-13.8 119.79-11.56L119.79-11.56Q117.47-7.84 113.63-7.84L113.63-7.84Q113.03-7.84 112.63-8.04 112.23-8.24 112.03-8.64L112.03-8.64Q114.87-8.64 117.23-11.92L117.23-11.92Q119.15-14.56 119.15-16.76L119.15-16.76Q119.15-18.4 117.83-18.4L117.83-18.4Q115.19-18.4 112.91-14.28L112.91-14.28Q110.47-9.8 110.47-5.08L110.47-5.08Q110.47-1.08 112.75-0.28L112.75-0.28Q113.19-0.12 113.87-0.12 114.55-0.12 115.31-0.46 116.07-0.8 116.59-1.28L116.59-1.28Q117.63-2.24 118.31-3.4L118.31-3.4Q118.47-3.72 118.91-3.72L118.91-3.72Q119.63-3.72 119.59-3.48L119.59-3.48Q119.47-3.04 118.69-2 117.91-0.96 117.25-0.34 116.59 0.28 115.53 0.78 114.47 1.28 113.39 1.28L113.39 1.28Q109.15 1.28 107.99-2.72L107.99-2.72Q107.63-4.08 107.63-5.52L107.63-5.52Q107.63-8.2 108.87-11.36L108.87-11.36Q110.83-16.16 114.27-18.28L114.27-18.28Q116.15-19.4 118.11-19.4ZM133.67-19.4L133.67-19.4Q136.71-19.4 136.71-15.84L136.71-15.84Q136.71-13.8 135.35-11.56L135.35-11.56Q133.03-7.84 129.19-7.84L129.19-7.84Q128.59-7.84 128.19-8.04 127.79-8.24 127.59-8.64L127.59-8.64Q130.43-8.64 132.79-11.92L132.79-11.92Q134.71-14.56 134.71-16.76L134.71-16.76Q134.71-18.4 133.39-18.4L133.39-18.4Q130.75-18.4 128.47-14.28L128.47-14.28Q126.03-9.8 126.03-5.08L126.03-5.08Q126.03-1.08 128.31-0.28L128.31-0.28Q128.75-0.12 129.43-0.12 130.11-0.12 130.87-0.46 131.63-0.8 132.15-1.28L132.15-1.28Q133.19-2.24 133.87-3.4L133.87-3.4Q134.03-3.72 134.47-3.72L134.47-3.72Q135.19-3.72 135.15-3.48L135.15-3.48Q135.03-3.04 134.25-2 133.47-0.96 132.81-0.34 132.15 0.28 131.09 0.78 130.03 1.28 128.95 1.28L128.95 1.28Q124.71 1.28 123.55-2.72L123.55-2.72Q123.19-4.08 123.19-5.52L123.19-5.52Q123.19-8.2 124.43-11.36L124.43-11.36Q126.39-16.16 129.83-18.28L129.83-18.28Q131.71-19.4 133.67-19.4Z" opacity="1" transform="matrix(1,0,0,1,0,0)" fill="#111111" class="undefined-text-0" data-fill-palette-color="quaternary" id="text-0"></path></svg></g></svg></g></svg></g></svg></g><g></g></svg></g><defs></defs><mask id="2e757e32-26bc-474f-ab88-e509165a4dce"><g id="SvgjsG1008"><svg viewBox="0 0 395.52 144.7663200390434" height="144.7663200390434" width="395.52"><g><svg viewBox="0 0 395.52 144.7663200390434" height="144.7663200390434" width="395.52"><g><svg viewBox="0 0 395.52 144.7663200390434" height="144.7663200390434" width="395.52"><g id="SvgjsG1007"><svg viewBox="0 0 395.52 144.7663200390434" height="144.7663200390434" width="395.52" id="SvgjsSvg1006"><g><svg viewBox="0 0 395.52 144.7663200390434" height="144.7663200390434" width="395.52"><path d="M394.594 31.05C392.735 16.023 387.435 11.845 387.435 11.845 371.165-3.632 350.86-0.296 332.619 1.928 300.414 2.018 268.339 5.324 236.208 7.097 168.767 7.368 100.749 2.92 33.643 13.889 27.339 17.255-6.54 14.55 1.121 32.973 3.129 40.637 10.456 49.142 10.232 56.174 11.236 57.406 12.631 54.581 13.226 56.355 15.309 61.133 18.711 58.879 21.501 61.704 17.614 69.247 20.403 75.529 23.062 82.11 18.377 83.823 12.371 83.012 9.675 88.692 9.396 92.809 7.89 92.028 6.235 91.848 5.026 91.727 2.59 92.178 2.999 93.47 4.394 97.888-1.594 100.443 2.162 104.771-0.422 109.459 3.948 113.516 3.353 118.595 3.278 119.617 3.687 120.488 4.338 120.729 7.22 122.021 3.018 124.546 3.464 127.281 33.029 145.974 65.104 133.051 95.394 141.646 103.259 135.635 97.346 143.78 100.489 142.518 102.943 141.045 104.728 147.146 107.499 143.69 107.927 142.698 107.276 140.354 108.8 140.805 109.6 141.045 110.307 140.985 110.418 139.602 110.586 137.529 109.117 138.821 108.726 137.739 112.947 132.269 111.906 145.283 115.866 144.742 115.68 143.149 114.528 140.865 116.889 141.165 119.232 138.881 119.306 136.988 121.389 142.127 121.463 143.239 121.835 144.02 122.43 144.561 128.938 138.971 135.409 146.545 142.233 144.02 146.417 141.255 150.433 145.523 154.672 144.471 156.16 143.63 157.666 142.127 159.098 144.651 176.632 145.192 195.319 142.938 211.943 144.742 256.364 141.376 303.836 146.124 350.674 141.676 361.719 139.963 373.192 137.529 383.958 135.575 383.958 135.575 392.679 130.226 392.679 106.183S394.538 85.146 394.817 66.002C395.096 46.858 396.398 46.076 394.538 31.05Z" opacity="1" fill="white"></path><g transform="matrix(1,0,0,1,55.76832,26.230666666666668)"><svg width="283.98335999999995" viewBox="0.12 -30.96 136.59 44.400000000000006" height="92.30498670571006" data-palette-color="#111111"></svg></g></svg></g></svg></g></svg></g><g></g></svg></g><defs><mask></mask></defs></svg></g></mask><linearGradient x1="0.054" x2="0.941" y1="0.5" y2="0.5" id="0be1f8d5-4f42-4d23-8c79-f4da9e2c37d6"><stop stop-color="#864d25" offset="0"></stop><stop stop-color="#f1c4b3" offset="0.498"></stop><stop stop-color="#864d25" offset="1"></stop></linearGradient></svg><rect width="395.52" height="144.7663200390434" fill="none" stroke="none" visibility="hidden"></rect></g></svg></g></svg>